<svg xmlns="http://www.w3.org/2000/svg" width="26" height="26" viewBox="0 0 32 32" role="img" aria-hidden="true" class="Svg-sc-ytk21e-0 dYnaPI">
  <!-- Circle Background -->
  <circle cx="16" cy="16" r="15" fill="#000" />
  
  <!-- Centered Icon -->
  <g transform="translate(16, 16) translate(-8, -8)"> <!-- Center the icon -->
    <path d="M2.7 1a.7.7 0 0 0-.7.7v12.6a.7.7 0 0 0 .7.7h2.6a.7.7 0 0 0 .7-.7V1.7a.7.7 0 0 0-.7-.7H2.7zm8 0a.7.7 0 0 0-.7.7v12.6a.7.7 0 0 0 .7.7h2.6a.7.7 0 0 0 .7-.7V1.7a.7.7 0 0 0-.7-.7h-2.6z" fill="#fff" />
  </g>
</svg>


